<svg width="520" height="520" viewBox="0 0 520 520" fill="none" xmlns="http://www.w3.org/2000/svg">
<rect x="2" y="2" width="516" height="516" rx="34" fill="#121212"/>
<rect x="2" y="2" width="516" height="516" rx="34" stroke="#212121" stroke-width="4"/>
<path d="M319.178 297.017C321.033 289.566 321.118 281.717 319.413 274.216C317.378 265.26 312.861 257.068 306.351 250.524L291.951 236.051C289.287 233.376 285.747 231.897 281.975 231.884H281.938C278.19 231.884 274.659 233.34 271.996 235.982L266.303 241.62C265.776 242.143 264.925 242.141 264.4 241.617L248.202 225.455C244.741 222.002 239.109 222.002 235.649 225.455C233.971 227.131 233.046 229.357 233.046 231.726C233.046 234.096 233.971 236.323 235.649 237.998L251.799 254.113C252.328 254.641 252.327 255.499 251.797 256.026L241.455 266.299C240.928 266.823 240.076 266.822 239.55 266.297L223.343 250.125C219.881 246.672 214.25 246.672 210.79 250.125C209.112 251.801 208.187 254.027 208.187 256.397C208.187 258.766 209.112 260.994 210.79 262.668L226.949 278.792C227.479 279.321 227.477 280.181 226.945 280.707L222.227 285.378C219.549 288.036 218.068 291.57 218.056 295.329C218.044 299.088 219.503 302.632 222.164 305.306L236.563 319.779C243.158 326.408 251.449 330.997 260.538 333.052C268.158 334.775 276.123 334.659 283.68 332.724L307.849 356.857C311.762 360.765 316.979 362.917 322.536 362.917C328.092 362.917 333.278 360.776 337.188 356.888L343.474 350.638C347.41 346.727 349.579 341.52 349.583 335.979C349.591 330.438 347.432 325.225 343.505 321.303L319.178 297.017ZM304.189 307.129L330.948 333.847C331.523 334.421 331.827 335.154 331.825 335.961C331.824 336.762 331.511 337.514 330.944 338.077L324.658 344.325C323.485 345.492 321.578 345.489 320.408 344.32L293.788 317.742C291.539 315.494 288.548 314.257 285.368 314.257C284.05 314.257 282.74 314.473 281.474 314.899C275.994 316.739 270.11 317.036 264.459 315.76C258.667 314.45 253.376 311.519 249.162 307.284L239.72 297.793C238.403 296.469 238.412 294.327 239.739 293.014L246.735 286.089L251.21 281.623L268.022 264.924L271.589 261.364L279.528 253.501C280.85 252.191 282.983 252.199 284.296 253.518L293.752 263.023C297.91 267.203 300.795 272.432 302.094 278.142C303.36 283.708 303.089 289.513 301.312 294.931C299.892 299.263 300.993 303.939 304.189 307.129Z" fill="white"/>
<path d="M286.23 356.265C283.089 353.124 277.97 353.118 274.821 356.252C267.206 363.829 254.847 363.8 247.269 356.188L155.79 264.268C148.212 256.652 148.24 244.29 155.855 236.711L222.993 169.819C226.671 166.159 231.549 164.145 236.736 164.145C236.751 164.145 236.767 164.145 236.782 164.145C241.985 164.157 246.872 166.196 250.547 169.887L330.949 250.354C332.614 252.02 334.827 252.938 337.183 252.939C339.537 252.939 341.754 252.022 343.419 250.359C346.842 246.938 346.855 241.361 343.446 237.926L261.764 155.581L261.637 155.461C254.486 149.132 245.274 145.789 235.7 146.052C226.084 146.316 217.031 150.2 210.209 156.991L143.069 223.884C135.955 230.966 132.023 240.397 132 250.435C131.977 260.473 135.864 269.919 142.945 277.035L234.426 368.955C241.511 376.074 250.946 380.008 260.99 380.031H261.081C271.09 380.031 280.509 376.144 287.606 369.079C289.137 367.555 289.981 365.527 289.983 363.367C289.986 361.207 289.146 359.176 287.618 357.648L286.23 356.265Z" fill="white"/>
<path d="M385.713 242.034L354.48 149.968L354.423 149.775L354.174 149.235C352.099 144.699 349.059 140.901 345.137 137.947C341.461 135.178 337.1 133.282 332.527 132.464C327.956 131.646 323.211 131.913 318.807 133.235C314.105 134.646 309.935 137.157 306.41 140.698L293.352 153.817C291.665 155.51 290.73 157.759 290.715 160.148C290.7 162.536 291.61 164.795 293.275 166.509C294.981 168.266 297.268 169.241 299.717 169.255C299.736 169.255 299.755 169.255 299.774 169.255C302.201 169.255 304.48 168.309 306.194 166.588L319.252 153.469C321.928 150.779 325.604 149.62 329.338 150.288C333.012 150.946 336.018 153.238 337.617 156.593L368.682 248.195L368.714 248.304L368.754 248.411C369.502 250.362 369.882 252.41 369.882 254.5C369.882 259.054 368.104 263.332 364.876 266.545L343.478 287.848C341.762 289.556 340.816 291.831 340.813 294.252C340.81 296.672 341.751 298.949 343.465 300.662C345.231 302.427 347.55 303.31 349.872 303.31C352.194 303.31 354.502 302.432 356.265 300.675L377.662 279.374C380.955 276.094 383.53 272.256 385.312 267.967C387.095 263.676 388 259.145 388 254.5C388 250.224 387.232 246.031 385.713 242.034Z" fill="white"/>
</svg>
