<svg width="1392" height="768" viewBox="0 0 1392 768" fill="none" xmlns="http://www.w3.org/2000/svg">
<rect x="2" y="2" width="1387.5" height="764" rx="30" fill="#121212"/>
<rect x="2" y="2" width="1387.5" height="764" rx="30" stroke="#212121" stroke-width="4"/>
<path d="M366.605 287.066C356.371 276.871 339.752 276.98 329.554 287.211L263.58 353.416C253.382 363.648 253.512 379.976 263.743 390.172L371.913 498.342C382.146 508.536 398.733 508.451 408.93 498.22L441.082 466.068C431.705 475.445 423.989 468.703 414.845 459.597L396.911 441.664C383.297 447.053 367.385 444.376 356.355 433.367L342.689 419.701C342.229 419.245 341.875 418.769 341.625 418.172C341.376 417.574 341.247 416.933 341.247 416.286C341.246 415.638 341.374 414.997 341.622 414.4C341.87 413.802 342.259 413.295 342.718 412.839L350.452 405.105L333.617 388.27C330.981 385.64 330.551 381.393 332.908 378.524C335.602 375.23 340.486 375.055 343.441 378.004L360.504 395.053L372.061 383.496L355.186 366.663C352.549 364.032 352.12 359.786 354.497 356.897C355.127 356.13 355.911 355.503 356.798 355.056C357.686 354.61 358.656 354.354 359.648 354.305C360.64 354.256 361.631 354.415 362.558 354.772C363.485 355.129 364.327 355.675 365.03 356.377L382.162 373.395L389.422 366.134C389.878 365.675 390.327 365.261 390.925 365.012C391.522 364.763 392.163 364.634 392.811 364.634C393.458 364.633 394.099 364.76 394.697 365.008C395.295 365.256 395.838 365.62 396.295 366.079L409.983 379.74C420.875 390.611 423.723 406.433 418.631 419.945L436.568 437.882C445.712 446.987 453.363 453.787 462.741 444.41L503.312 403.838C493.56 413.59 485.548 406.077 475.911 396.448L366.605 287.066Z" fill="url(#paint0_linear_4_463)"/>
<path d="M443.308 269.027L408.82 303.487L485.448 380.116C492.783 387.419 499.158 393.239 506.232 390.417C510.321 388.787 513.128 384.351 511.561 380.238C474.894 284.025 474.879 284.024 470.015 273.507C465.151 262.99 451.471 260.76 443.308 269.027Z" fill="#897FFF"/>
<path d="M443.308 269.027L408.82 303.487L485.448 380.116C492.783 387.419 499.158 393.239 506.232 390.417C510.321 388.787 513.128 384.351 511.561 380.238C474.894 284.025 474.879 284.024 470.015 273.507C465.151 262.99 451.471 260.76 443.308 269.027Z" fill="#897FFF"/>
<path d="M443.308 269.027L408.82 303.487L485.448 380.116C492.783 387.419 499.158 393.239 506.232 390.417C510.321 388.787 513.128 384.351 511.561 380.238C474.894 284.025 474.879 284.024 470.015 273.507C465.151 262.99 451.471 260.76 443.308 269.027Z" fill="#897FFF"/>
<path d="M443.308 269.027L408.82 303.487L485.448 380.116C492.783 387.419 499.158 393.239 506.232 390.417C510.321 388.787 513.128 384.351 511.561 380.238C474.894 284.025 474.879 284.024 470.015 273.507C465.151 262.99 451.471 260.76 443.308 269.027Z" fill="#897FFF"/>
<path d="M443.308 269.027L408.82 303.487L485.448 380.116C492.783 387.419 499.158 393.239 506.232 390.417C510.321 388.787 513.128 384.351 511.561 380.238C474.894 284.025 474.879 284.024 470.015 273.507C465.151 262.99 451.471 260.76 443.308 269.027Z" fill="#897FFF"/>
<path d="M599.5 472C595.358 472 592 468.642 592 464.5V319.5C592 315.358 595.358 312 599.5 312H623.311C627.308 312 630.603 315.135 630.802 319.127L632.653 356.278C632.76 358.421 630.2 359.6 628.64 358.127C628.018 357.539 627.757 356.662 627.973 355.833C630.486 346.186 634.332 338.163 639.512 331.765C644.93 325.072 651.494 320.157 659.204 317.02C667.123 313.673 675.771 312 685.148 312C695.984 312 705.57 314.092 713.905 318.275C722.449 322.458 729.117 328.837 733.91 337.412C738.911 345.778 741.412 356.34 741.412 369.098V464.5C741.412 468.642 738.054 472 733.912 472H706.089C701.947 472 698.589 468.642 698.589 464.5V381.333C698.589 367.948 695.984 358.745 690.774 353.726C685.565 348.497 678.792 345.882 670.457 345.882C664.622 345.882 658.892 347.346 653.265 350.275C647.847 352.993 643.367 357.49 639.824 363.765C636.49 370.039 634.823 378.405 634.823 388.863V464.5C634.823 468.642 631.465 472 627.323 472H599.5Z" fill="white"/>
<path d="M944.745 317.632C945.597 314.317 948.585 312 952.008 312H981.633C986.711 312 990.321 316.94 988.779 321.777L966.806 390.725L943.35 466.664C942.379 469.807 939.474 471.951 936.184 471.951H897.846C894.565 471.951 891.664 469.818 890.687 466.685L860.69 370.574C859.956 368.221 856.619 368.238 855.91 370.599L827.044 466.61C826.091 469.781 823.172 471.951 819.862 471.951H781.561C778.283 471.951 775.384 469.822 774.404 466.693L728.986 321.742C727.472 316.912 731.08 312 736.143 312H765.832C769.249 312 772.234 314.31 773.092 317.618L800.638 423.891C801.276 426.354 804.757 426.4 805.46 423.954L836.089 317.428C837.013 314.214 839.953 312 843.297 312H874.542C877.881 312 880.817 314.207 881.746 317.414L912.603 423.959C913.311 426.403 916.792 426.35 917.426 423.886L944.745 317.632Z" fill="white"/>
<path d="M1048.68 312C1062.38 312 1073.92 314.051 1083.33 318.154C1092.93 322.051 1100.6 327.487 1106.32 334.462C1110.64 339.403 1114.05 344.782 1116.52 350.598C1118.07 354.243 1115.98 358.278 1112.26 359.621L1087.67 368.491C1083.42 370.025 1078.85 367.436 1077.24 363.208C1075.23 357.917 1072.56 353.668 1069.22 350.462C1064.32 345.744 1057.68 343.385 1049.3 343.385C1041.53 343.385 1034.89 345.231 1029.37 348.923C1023.85 352.41 1019.66 357.846 1016.8 365.231C1013.94 372.41 1012.51 381.436 1012.51 392.308C1012.51 403.179 1013.94 412.205 1016.8 419.385C1019.87 426.564 1024.16 431.897 1029.68 435.385C1035.4 438.872 1042.04 440.615 1049.6 440.615C1055.73 440.615 1060.95 439.59 1065.24 437.538C1069.53 435.282 1073 432.103 1075.66 428C1077.04 426.023 1078.2 423.856 1079.16 421.499C1080.86 417.28 1085.34 414.48 1089.67 415.881L1112.88 423.394C1116.61 424.603 1118.83 428.513 1117.47 432.195C1115.06 438.717 1111.54 444.601 1106.93 449.846C1100.8 456.821 1092.93 462.256 1083.33 466.154C1073.72 470.051 1062.58 472 1049.91 472C1034.17 472 1020.27 468.821 1008.22 462.462C996.158 456.103 986.859 446.974 980.319 435.077C973.779 423.179 970.509 408.821 970.509 392C970.509 375.179 973.779 360.821 980.319 348.923C986.859 337.026 996.056 327.897 1007.91 321.538C1019.76 315.179 1033.35 312 1048.68 312Z" fill="white"/>
<defs>
<linearGradient id="paint0_linear_4_463" x1="379.656" y1="266.44" x2="379.656" y2="505.941" gradientUnits="userSpaceOnUse">
<stop stop-color="#FFCA4A"/>
<stop offset="1" stop-color="#F7931A"/>
</linearGradient>
</defs>
</svg>
