<?xml version="1.0" encoding="UTF-8" standalone="no"?>
<!-- Created with Inkscape (http://www.inkscape.org/) -->

<svg
   version="1.1"
   id="svg1"
   width="1666"
   height="410"
   viewBox="0 0 1666 410"
   sodipodi:docname="ts_logo_rectangle.svg"
   inkscape:version="1.4.2 (ebf0e94, 2025-05-08)"
   inkscape:export-filename="../output/ts_logo_rectangle.png"
   inkscape:export-xdpi="192"
   inkscape:export-ydpi="192"
   xml:space="preserve"
   xmlns:inkscape="http://www.inkscape.org/namespaces/inkscape"
   xmlns:sodipodi="http://sodipodi.sourceforge.net/DTD/sodipodi-0.dtd"
   xmlns:xlink="http://www.w3.org/1999/xlink"
   xmlns="http://www.w3.org/2000/svg"
   xmlns:svg="http://www.w3.org/2000/svg"><defs
     id="defs1"><linearGradient
       id="linearGradient5825"
       inkscape:collect="always"><stop
         style="stop-color:#facc15;stop-opacity:1;"
         offset="0"
         id="stop5825" /><stop
         style="stop-color:#d99015;stop-opacity:1;"
         offset="0.82452083"
         id="stop5826" /></linearGradient><filter
       inkscape:collect="always"
       style="color-interpolation-filters:sRGB"
       id="filter5822"
       x="-0.033615736"
       y="-0.033615736"
       width="1.0672315"
       height="1.0672315"><feGaussianBlur
         inkscape:collect="always"
         stdDeviation="1.5422735"
         id="feGaussianBlur5822" /></filter><filter
       inkscape:collect="always"
       style="color-interpolation-filters:sRGB"
       id="filter5823"
       x="-0.073020196"
       y="-0.073020196"
       width="1.1460404"
       height="1.1460404"><feGaussianBlur
         inkscape:collect="always"
         stdDeviation="13.712554"
         id="feGaussianBlur5823" /></filter><filter
       inkscape:collect="always"
       style="color-interpolation-filters:sRGB"
       id="filter5824"
       x="-0.069531729"
       y="-0.069531729"
       width="1.1390635"
       height="1.1390635"><feGaussianBlur
         inkscape:collect="always"
         stdDeviation="16.59219"
         id="feGaussianBlur5824" /></filter><radialGradient
       inkscape:collect="always"
       xlink:href="#linearGradient5825"
       id="radialGradient5826"
       cx="507.4407"
       cy="522.383"
       fx="507.4407"
       fy="522.383"
       r="187.1702"
       gradientTransform="matrix(0.47541173,0,0,1.0227812,56.326908,-263.01386)"
       gradientUnits="userSpaceOnUse" /><filter
       inkscape:collect="always"
       style="color-interpolation-filters:sRGB"
       id="filter5826"
       x="-0.01304445"
       y="-0.0054420075"
       width="1.0260889"
       height="1.010884"><feGaussianBlur
         inkscape:collect="always"
         stdDeviation="1.4744371"
         id="feGaussianBlur5826" /></filter><filter
       inkscape:collect="always"
       style="color-interpolation-filters:sRGB"
       id="filter5827"
       x="-0.013120243"
       y="-0.0054289237"
       width="1.0262405"
       height="1.0108578"><feGaussianBlur
         inkscape:collect="always"
         stdDeviation="1.461703"
         id="feGaussianBlur5827" /></filter><filter
       inkscape:collect="always"
       style="color-interpolation-filters:sRGB"
       id="filter5828"
       x="-0.13178927"
       y="-0.061258625"
       width="1.2635785"
       height="1.1225173"><feGaussianBlur
         inkscape:collect="always"
         stdDeviation="20.555852"
         id="feGaussianBlur5828" /></filter><filter
       inkscape:collect="always"
       style="color-interpolation-filters:sRGB"
       id="filter5829"
       x="-0.012331284"
       y="-0.012331284"
       width="1.0246626"
       height="1.0246626"><feGaussianBlur
         inkscape:collect="always"
         stdDeviation="2.4079369"
         id="feGaussianBlur5829" /></filter><filter
       inkscape:collect="always"
       style="color-interpolation-filters:sRGB"
       id="filter5830"
       x="-0.013308055"
       y="-0.013308055"
       width="1.0266161"
       height="1.0266161"><feGaussianBlur
         inkscape:collect="always"
         stdDeviation="1.9900305"
         id="feGaussianBlur5830" /></filter><filter
       inkscape:collect="always"
       style="color-interpolation-filters:sRGB"
       id="filter5831"
       x="-0.016878263"
       y="-0.016878263"
       width="1.0337565"
       height="1.0337565"><feGaussianBlur
         inkscape:collect="always"
         stdDeviation="1.9519399"
         id="feGaussianBlur5831" /></filter><filter
       inkscape:collect="always"
       style="color-interpolation-filters:sRGB"
       id="filter5832"
       x="-0.087725139"
       y="-0.087725139"
       width="1.1754503"
       height="1.1754503"><feGaussianBlur
         inkscape:collect="always"
         stdDeviation="21.671432"
         id="feGaussianBlur5832" /></filter><filter
       inkscape:collect="always"
       style="color-interpolation-filters:sRGB"
       id="filter5833"
       x="-0.091632219"
       y="-0.091632219"
       width="1.1832644"
       height="1.1832644"><feGaussianBlur
         inkscape:collect="always"
         stdDeviation="17.910274"
         id="feGaussianBlur5833" /></filter><filter
       inkscape:collect="always"
       style="color-interpolation-filters:sRGB"
       id="filter5834"
       x="-0.098168024"
       y="-0.098168024"
       width="1.196336"
       height="1.196336"><feGaussianBlur
         inkscape:collect="always"
         stdDeviation="13.880462"
         id="feGaussianBlur5834" /></filter><filter
       inkscape:collect="always"
       style="color-interpolation-filters:sRGB"
       id="filter5835"
       x="-0.078855737"
       y="-0.078855737"
       width="1.1577115"
       height="1.1577115"><feGaussianBlur
         inkscape:collect="always"
         stdDeviation="10.627229"
         id="feGaussianBlur5835" /></filter></defs><sodipodi:namedview
     id="namedview1"
     pagecolor="#0f1115"
     bordercolor="#000000"
     borderopacity="0.25"
     inkscape:showpageshadow="2"
     inkscape:pageopacity="0.0"
     inkscape:pagecheckerboard="0"
     inkscape:deskcolor="#d1d1d1"
     inkscape:zoom="0.72"
     inkscape:cx="1325.6944"
     inkscape:cy="263.88889"
     inkscape:window-width="2991"
     inkscape:window-height="1215"
     inkscape:window-x="0"
     inkscape:window-y="0"
     inkscape:window-maximized="1"
     inkscape:current-layer="layer2" /><g
     inkscape:groupmode="layer"
     id="layer3"
     inkscape:label="Text"
     transform="translate(-150.61206,-67.808969)"><g
       id="g2"
       transform="matrix(0.94759439,0,0,0.94759439,54.45858,19.157807)"><path
         style="font-weight:bold;font-size:200px;font-family:Sans;-inkscape-font-specification:'Sans, Bold';letter-spacing:-5.37908px;white-space:pre;fill:#ffffff;stroke-width:0"
         d="M 619.77588,363.15854 H 582.91307 V 221.73062 h -46.50015 v -30.59854 h 129.86311 v 30.59854 H 619.77588 Z M 779.10436,231.60889 v 131.54965 h -27.94828 l -4.57773,-16.86534 h -2.1684 c -4.17618,6.74614 -9.87827,11.64512 -17.10628,14.69694 -7.228,3.05183 -15.01818,4.57774 -23.37054,4.57774 -13.97414,0 -25.29801,-3.77462 -33.97161,-11.32387 -8.51298,-7.70987 -12.76947,-19.99748 -12.76947,-36.86282 v -85.7723 h 36.62188 v 76.61683 c 0,9.31609 1.60622,16.38347 4.81867,21.20214 3.37307,4.65805 8.6736,6.98707 15.9016,6.98707 10.92231,0 18.31094,-3.69431 22.16588,-11.08293 4.01555,-7.38863 6.02333,-18.07001 6.02333,-32.04415 v -61.67896 z m 104.10841,-2.40933 c 14.45601,0 25.86019,3.85493 34.21255,11.5648 8.35236,7.54925 12.52854,19.75655 12.52854,36.62188 v 85.7723 h -36.14002 v -76.61683 c 0,-18.95343 -7.06738,-28.43014 -21.20214,-28.43014 -10.92231,0 -18.39125,3.77462 -22.40681,11.32387 -3.85493,7.38863 -5.7824,18.07001 -5.7824,32.04415 v 61.67895 H 808.04155 V 231.60889 h 27.94827 l 5.0596,17.58814 h 1.44561 c 8.6736,-13.33165 22.24618,-19.99747 40.71774,-19.99747 z m 150.12663,0 c 14.456,0 25.8602,3.85493 34.2125,11.5648 8.3523,7.54925 12.5285,19.75655 12.5285,36.62188 v 85.7723 h -36.14 v -76.61683 c 0,-18.95343 -7.0674,-28.43014 -21.2021,-28.43014 -10.9223,0 -18.3913,3.77462 -22.4068,11.32387 -3.85495,7.38863 -5.78243,18.07001 -5.78243,32.04415 v 61.67895 H 958.16812 V 231.60889 h 27.94828 l 5.0596,17.58814 h 1.4456 c 8.6736,-13.33165 22.2462,-19.99747 40.7178,-19.99747 z m 131.0928,0 c 18.3109,0 32.6866,5.13991 43.1271,15.41974 10.6011,10.27983 15.9016,25.05708 15.9016,44.33175 v 17.58814 h -84.5677 c 0.4819,9.95858 3.5337,17.82907 9.1555,23.61147 5.7824,5.62178 14.0545,8.43267 24.8162,8.43267 8.1917,0 15.6607,-0.80311 22.4068,-2.40933 6.7461,-1.60623 13.6529,-4.01556 20.7202,-7.228 v 27.22547 c -6.4249,3.21245 -13.2513,5.54147 -20.4793,6.98707 -7.228,1.60623 -16.0622,2.40934 -26.5027,2.40934 -13.0104,0 -24.5752,-2.40934 -34.6944,-7.22801 -9.9586,-4.97929 -17.8291,-12.44822 -23.6115,-22.4068 -5.7824,-9.95859 -8.6736,-22.48713 -8.6736,-37.58562 0,-22.96899 5.7021,-40.23588 17.1063,-51.80068 11.5648,-11.56481 26.6633,-17.34721 45.2955,-17.34721 z m 0.9637,25.77988 c -7.228,0 -13.171,2.32902 -17.8291,6.98707 -4.4974,4.49742 -7.0673,11.24355 -7.7098,20.2384 h 49.6323 c -0.1607,-7.87049 -2.2488,-14.37569 -6.2643,-19.5156 -3.8549,-5.13991 -9.798,-7.70987 -17.8291,-7.70987 z m 116.6366,108.1791 h -36.3809 v -183.1094 h 36.3809 z"
         id="path1"
         sodipodi:nodetypes="ccccccccccccccsscsccscscsccscsccsscsccccccsscsccsscsccccccsscscccsscccscsscssscccsccccc" /><path
         style="font-weight:bold;font-size:200px;font-family:Sans;-inkscape-font-specification:'Sans, Bold';letter-spacing:-5.37908px;white-space:pre;fill:#d9a515;stroke-width:0"
         d="m 1416.4982,315.45373 q 0,22.88867 -16.6244,36.62187 -16.3835,13.49228 -46.7411,13.49228 -27.2255,0 -48.6686,-10.36014 v -33.97161 q 12.2876,5.30053 25.298,9.87827 13.2514,4.3368 26.2618,4.3368 13.4923,0 19.0337,-5.0596 5.7824,-5.30054 5.7824,-13.25134 0,-6.5052 -4.5777,-11.08294 -4.3368,-4.57773 -11.8057,-8.43267 -7.469,-4.09587 -17.1063,-8.6736 -6.0233,-2.8912 -13.0104,-6.74614 -6.9871,-4.09587 -13.4923,-9.87827 -6.2643,-6.02333 -10.3601,-14.456 -4.0959,-8.43267 -4.0959,-20.23841 0,-23.12961 15.6607,-35.89908 15.6606,-13.0104 42.6452,-13.0104 13.4923,0 25.5389,3.13213 12.2876,3.13214 25.539,8.91454 l -11.8058,28.43014 q -11.8057,-4.81867 -21.2021,-7.46894 -9.3964,-2.65026 -19.2747,-2.65026 -10.3601,0 -15.9016,4.81867 -5.5414,4.81866 -5.5414,12.52853 0,9.15547 8.1917,14.45601 8.1917,5.30053 24.3343,13.0104 13.2513,6.26427 22.4068,13.01041 9.3964,6.74613 14.456,15.9016 5.0596,9.15547 5.0596,22.64775 z m 79.5329,-86.25417 q 24.5753,0 37.5857,11.80574 13.2513,11.5648 13.2513,34.45348 v 87.69976 h -25.298 l -6.9871,-17.82907 h -0.9637 q -8.6736,10.60107 -18.07,15.41974 -9.1555,4.81867 -25.7799,4.81867 -17.3472,0 -28.912,-10.11921 -11.5648,-10.1192 -11.5648,-31.08041 0,-20.47934 14.9379,-30.83948 14.9378,-10.60107 44.5726,-11.80573 l 21.925,-0.7228 v -4.09587 q 0,-11.80574 -5.5415,-16.38347 -5.3005,-4.81867 -14.6969,-4.81867 -8.9146,0 -18.311,2.8912 -9.3964,2.8912 -18.5518,6.98707 l -10.6011,-24.81615 q 10.3601,-5.30053 23.6115,-8.43266 13.4922,-3.13214 29.3938,-3.13214 z m 0.9638,73.72563 q -17.3472,0.48186 -24.0934,5.54147 -6.5052,5.0596 -6.5052,14.21507 0,8.43267 4.5778,12.52854 4.8186,3.85493 12.7694,3.85493 11.3239,0 19.0338,-6.74614 7.9508,-6.74613 7.9508,-19.27467 v -10.842 z m 134.7067,33.97161 q 6.0233,0 11.5648,-1.20467 5.5415,-1.20466 11.0829,-2.8912 v 26.74361 q -5.7824,2.40934 -14.456,4.09587 -8.4326,1.92747 -18.5518,1.92747 -11.8058,0 -21.2022,-3.85494 -9.1555,-3.85493 -14.6969,-13.25134 -5.3006,-9.63733 -5.3006,-26.50267 v -63.36549 h -17.1062 v -15.17881 l 19.7565,-12.04667 10.3601,-27.70734 h 22.8887 v 27.94827 h 36.8628 v 26.98455 h -36.8628 v 63.36549 q 0,7.46893 4.3368,11.32387 4.3368,3.614 11.3239,3.614 z m 134.7066,-12.52854 q 0,18.79281 -13.4923,30.11668 -13.2513,11.08294 -40.9587,11.08294 -13.9741,0 -24.5752,-1.92747 -10.601,-1.68653 -20.4793,-5.7824 v -30.11668 q 10.6011,5.0596 22.6477,7.9508 12.2876,2.8912 21.4431,2.8912 11.0829,0 15.9016,-3.13213 5.0596,-3.13214 5.0596,-8.43267 0,-3.614 -2.6503,-6.5052 -2.4093,-2.8912 -8.9145,-6.02334 -6.2643,-3.13213 -18.07,-7.70987 -17.5881,-6.98707 -26.7436,-15.41974 -8.9145,-8.6736 -8.9145,-25.05707 0,-18.31094 14.215,-27.70735 14.456,-9.3964 38.0675,-9.3964 12.5285,0 23.6115,2.65027 11.0829,2.65027 22.4068,7.46893 l -10.6011,24.81615 q -9.1554,-4.09587 -18.7928,-6.74614 -9.6373,-2.65027 -17.1063,-2.65027 -17.3472,0 -17.3472,9.63734 0,3.614 2.4094,6.26427 2.6502,2.40933 8.9145,5.30053 6.5052,2.89121 18.07,7.46894 11.8058,4.81867 19.7566,9.87827 8.1917,5.0596 12.0466,12.52854 4.0959,7.228 4.0959,18.55187 z"
         id="path2" /></g></g><g
     inkscape:groupmode="layer"
     id="layer1"
     inkscape:label="Rings"
     style="display:inline"
     transform="translate(-150.61206,-67.808969)" /><g
     inkscape:groupmode="layer"
     id="layer2"
     inkscape:label="Zaps"
     style="display:inline"
     transform="translate(-150.61206,-67.808969)"><g
       id="g1"
       transform="matrix(0.77149791,0,0,0.77149791,116.47931,63.525018)"><circle
         style="display:inline;opacity:1;fill:none;stroke:#22c55e;stroke-width:28;stroke-dasharray:none;stroke-opacity:1;filter:url(#filter5834)"
         id="circle5834"
         cx="511.5"
         cy="517.71887"
         r="240.98024"
         inkscape:label="Inner Circle blur out"
         transform="matrix(0.47541173,0,0,0.47541173,56.326908,22.922606)" /><circle
         style="display:inline;opacity:1;fill:none;stroke:#22c55e;stroke-width:25;stroke-dasharray:none;stroke-opacity:1;filter:url(#filter5835)"
         id="circle5822"
         cx="511.5"
         cy="517.71887"
         r="240.98024"
         inkscape:label="Inner Circle blur"
         transform="matrix(0.47541173,0,0,0.47541173,56.326908,22.922606)" /><circle
         style="display:inline;opacity:1;fill:none;stroke:#22c55e;stroke-width:25;stroke-dasharray:none;stroke-opacity:1;filter:url(#filter5822)"
         id="path5819"
         cx="511.5"
         cy="517.71887"
         r="240.98024"
         inkscape:label="Inner Circle"
         transform="matrix(0.47541173,0,0,0.47541173,56.326908,22.922606)" /><circle
         style="display:inline;opacity:1;mix-blend-mode:normal;fill:none;stroke:#22f25e;stroke-width:6.9;stroke-dasharray:none;stroke-opacity:1;filter:url(#filter5831)"
         id="circle5831"
         cx="511.5"
         cy="517.71887"
         r="240.98024"
         inkscape:label="Inner Circle light"
         transform="matrix(0.47541173,0,0,0.47541173,56.326908,22.922606)" /><circle
         style="display:inline;opacity:1;fill:none;stroke:#facc15;stroke-width:28;stroke-dasharray:none;stroke-opacity:1;filter:url(#filter5833)"
         id="circle5833"
         cx="511.5"
         cy="517.71887"
         r="310.94226"
         inkscape:label="Middle Circle blur out"
         transform="matrix(0.47541173,0,0,0.47541173,56.326908,22.922606)" /><circle
         style="display:inline;opacity:1;fill:none;stroke:#facc15;stroke-width:25;stroke-dasharray:none;stroke-opacity:1;filter:url(#filter5823)"
         id="circle5820"
         cx="511.5"
         cy="517.71887"
         r="310.94226"
         inkscape:label="Middle Circle blur"
         transform="matrix(0.47541173,0,0,0.47541173,56.326908,22.922606)" /><circle
         style="display:inline;opacity:1;fill:none;stroke:#facc15;stroke-width:11.8853;stroke-dasharray:none;stroke-opacity:1"
         id="circle5823"
         cx="299.5"
         cy="269.05225"
         inkscape:label="Middle Circle"
         r="147.82559" /><circle
         style="display:inline;opacity:1;fill:none;stroke:#faba15;stroke-width:7;stroke-dasharray:none;stroke-opacity:1;filter:url(#filter5830)"
         id="circle5830"
         cx="511.5"
         cy="517.71887"
         r="310.94226"
         inkscape:label="Middle Circle light"
         transform="matrix(0.47541173,0,0,0.47541173,56.326908,22.922606)" /><circle
         style="display:inline;opacity:1;mix-blend-mode:normal;fill:none;fill-opacity:1;stroke:#22c55e;stroke-width:28;stroke-dasharray:none;stroke-opacity:1;filter:url(#filter5832)"
         id="circle5832"
         cx="511.5"
         cy="517.71887"
         r="376.24014"
         inkscape:label="Outer Circle blur out"
         transform="matrix(0.47541173,0,0,0.47541173,56.326908,22.922606)" /><circle
         style="display:inline;opacity:1;mix-blend-mode:normal;fill:none;fill-opacity:1;stroke:#22c55e;stroke-width:25;stroke-dasharray:none;stroke-opacity:1;filter:url(#filter5824)"
         id="circle5821"
         cx="511.5"
         cy="517.71887"
         r="376.24014"
         inkscape:label="Outer Circle blur"
         transform="matrix(0.47541173,0,0,0.47541173,56.326908,22.922606)" /><circle
         style="display:inline;opacity:1;mix-blend-mode:normal;fill:none;fill-opacity:1;stroke:#22c55e;stroke-width:11.8853;stroke-dasharray:none;stroke-opacity:1"
         id="circle5824"
         cx="299.5"
         cy="269.05225"
         inkscape:label="Outer Circle"
         r="178.86897" /><circle
         style="display:inline;opacity:1;mix-blend-mode:normal;fill:none;fill-opacity:1;stroke:#22f25e;stroke-width:7;stroke-dasharray:none;stroke-opacity:1;filter:url(#filter5829)"
         id="circle5829"
         cx="511.5"
         cy="517.71887"
         r="376.24014"
         inkscape:label="Outer Circle light"
         transform="matrix(0.47541173,0,0,0.47541173,56.326908,22.922606)" /><path
         style="display:inline;opacity:1;mix-blend-mode:multiply;fill:#666666;fill-opacity:1;stroke-width:1.03131;filter:url(#filter5828)"
         d="m 682.48554,119.71277 -362.21502,456.78399 145.37559,4.77475 -129.22275,343.78168 358.18754,-464.0847 -142.96577,1.231 z"
         id="path5818"
         inkscape:label="Big Zap Blur"
         sodipodi:nodetypes="ccccccc"
         transform="matrix(0.5315455,0,0,0.5315455,27.842353,-6.400715)" /><path
         style="display:inline;opacity:1;fill:url(#radialGradient5826);stroke-width:0.490297"
         d="m 380.78854,79.835461 -172.20127,217.160469 69.11326,2.26997 -61.43401,163.43784 170.28656,-220.63131 -67.96761,0.58524 z"
         id="path5827"
         inkscape:label="Big Zap"
         sodipodi:nodetypes="ccccccc" /><path
         style="display:inline;opacity:1;mix-blend-mode:normal;fill:#d9a515;fill-opacity:1;stroke-width:1.03131;filter:url(#filter5826)"
         d="M 641.63708,186.53698 370.36087,551.5568 487.79588,555.3797 389.59879,836.78398 578.55974,509.46593 464.09521,512.11352 Z"
         id="path5824"
         inkscape:label="small left Zap"
         sodipodi:nodetypes="ccccccc"
         transform="matrix(0.47541173,0,0,0.47541173,56.326908,22.922606)" /><path
         style="display:inline;opacity:1;mix-blend-mode:normal;fill:#facc15;fill-opacity:1;stroke-width:1.03131;filter:url(#filter5827)"
         d="m 642.64447,182.40688 -180.12095,330.71284 111.1342,-1.87471 -179.22538,317.3465 267.37974,-351.91094 -134.18325,0.22168 z"
         id="path5825"
         inkscape:label="small right Zap"
         sodipodi:nodetypes="ccccccc"
         transform="matrix(0.47541173,0,0,0.47541173,56.326908,22.922606)" /></g></g></svg>
